<svg width="64" height="64" viewBox="0 0 64 64" fill="none" xmlns="http://www.w3.org/2000/svg" role="img" aria-label="GSW">
  <rect width="64" height="64" fill="#F7AA7E"/>
  <path d="M62.3066 1.45312V62.0664H1.69336V1.45312H62.3066Z" stroke="#070707" stroke-width="3.38736"/>
  <path d="M56.1515 12.3353H51.6971L49.7747 34.4675L47.8524 12.3353H44.6217H44.3507L42.4284 34.4675L40.5061 12.3353H36.0517L39.3417 51.1799H44.2872L46.0995 29.7887L47.9117 51.1799H48.3224H51.2271H52.8615L56.1515 12.3353ZM34.7306 43.8759V38.1513C34.7306 27.6462 26.5671 30.9828 26.5671 23.1664V20.1305C26.5671 16.9464 27.1133 16.3959 28.3116 16.3959C29.5098 16.3959 30.1026 16.9422 30.1026 20.1305V25.6011H34.3326V19.5843C34.3326 14.6049 32.2917 12.2168 28.3073 12.2168C24.3229 12.2168 22.3837 14.6557 22.3837 19.6351V23.8143C22.3837 33.6207 30.5472 31.0802 30.5472 38.8965V43.3763C30.5472 46.5604 29.7512 47.06 28.5063 47.06C27.2615 47.06 26.5628 46.5604 26.5628 43.3763V36.8598H22.3837V43.8251C22.3837 48.8045 24.4754 51.29 28.5063 51.29C32.5373 51.29 34.7264 48.8511 34.7264 43.8717M20.093 43.8209V30.0851H13.8941V34.3236H15.8122V43.372C15.8122 46.5562 15.2152 47.0558 13.9703 47.0558C12.7255 47.0558 12.0776 46.5562 12.0776 43.372V20.1263C12.0776 16.9422 12.6746 16.3917 13.9195 16.3917C15.1644 16.3917 15.8122 16.9379 15.8122 20.1263V25.6434H20.093V19.5758C20.093 14.5964 18.0013 12.2083 13.9195 12.2083C9.83773 12.2083 7.84766 14.6472 7.84766 19.6266V43.8675C7.84766 48.8426 9.93935 51.2858 13.9703 51.2858C18.0013 51.2858 20.093 48.7961 20.093 43.8209Z" fill="#070707"/>
</svg>
